<svg xmlns="http://www.w3.org/2000/svg" viewBox="0 0 537.98 421.47"><defs><style>.cls-1{fill:#0f936d;}.cls-2{fill:#174439;}</style></defs><g id="Layer_2" data-name="Layer 2"><g id="Layer_1-2" data-name="Layer 1"><path class="cls-1" d="M154.89,132.14q0,12.93-4.5,22.24a54.62,54.62,0,0,1-11.59,16,64,64,0,0,1-27.14,15.13,124.23,124.23,0,0,1-34,4.52A112.81,112.81,0,0,1,47,185.8a70.48,70.48,0,0,1-27.14-14.61A61.51,61.51,0,0,1,5.42,152.7a50.2,50.2,0,0,1-5.4-18,3.27,3.27,0,0,1,3-3.62l29.37-2.32a3.26,3.26,0,0,1,3.48,2.95,27.53,27.53,0,0,0,2.7,9.33,34.68,34.68,0,0,0,7.23,10,31.3,31.3,0,0,0,15.14,7.89,81.53,81.53,0,0,0,36.41-.26A30.08,30.08,0,0,0,111.79,151a36.45,36.45,0,0,0,5.46-7.11q2.18-3.75,2.18-10.48,0-10.08-7-15.12a37.69,37.69,0,0,0-16-6.6A187.65,187.65,0,0,0,75,109.13q-11.73-.78-21.27-2.33a76.29,76.29,0,0,1-19-5.43A53.66,53.66,0,0,1,19.19,91.15,46.88,46.88,0,0,1,8.55,75.9a49.75,49.75,0,0,1-4-20.3A42.9,42.9,0,0,1,9.24,35.69a60.09,60.09,0,0,1,12.27-16.3q9.54-9,24.55-14.22A98,98,0,0,1,78.24,0a98.7,98.7,0,0,1,29.87,4.52A64.21,64.21,0,0,1,146.3,35.43a45.89,45.89,0,0,1,5,14.75,3.26,3.26,0,0,1-2.93,3.76L119,56.6a3.26,3.26,0,0,1-3.49-2.72,26.48,26.48,0,0,0-2.24-6.69,31.62,31.62,0,0,0-5.86-8.4q-4.64-4.65-13.09-7.24A56.06,56.06,0,0,0,78,29,71.43,71.43,0,0,0,61.2,31a30.39,30.39,0,0,0-14.6,8,26.31,26.31,0,0,0-4.77,6.72,19.88,19.88,0,0,0-1.77,8.79q0,9.06,5.45,13.84T59.7,74.47Q69,75.78,80.56,76.8t21.14,2.33a84.9,84.9,0,0,1,20.6,5.56,57.36,57.36,0,0,1,16.91,10.6,48.48,48.48,0,0,1,11.45,15.9,50.1,50.1,0,0,1,4.23,20.95"/><path class="cls-1" d="M293.18,60.12A25.77,25.77,0,0,0,291,49.7a26.62,26.62,0,0,0-6.27-8.88,28.92,28.92,0,0,0-10.09-6,38.76,38.76,0,0,0-13.36-2.19H214.89V87.15h46.92q15,0,23.18-7t8.19-20.07M294,184.19l-26-56a18.64,18.64,0,0,0-16.9-10.79h-36v65a4.34,4.34,0,0,1-4.35,4.34H184.06a4.34,4.34,0,0,1-4.35-4.34V7.71a4.35,4.35,0,0,1,4.35-4.35h77.21q17.18,0,29.86,4.78a61.89,61.89,0,0,1,21,12.68,49.25,49.25,0,0,1,12.28,18.1,58.7,58.7,0,0,1,3.95,21.33q0,18.61-9.68,32.2a52.28,52.28,0,0,1-25.77,19.26s5.51,1.84,9.39,9.23c.88,1.66,2.16,4.56,3.59,7.59,2.71,5.72,5.68,12,5.68,12l10.48,22.15,9.41,19.91a2.87,2.87,0,0,1-2.6,4.1H298a4.36,4.36,0,0,1-3.95-2.51"/><path class="cls-1" d="M510.76,105.32a4.55,4.55,0,0,0-5.13,3.52c-7.4,34.63-44.34,56.78-78.65,46a60.4,60.4,0,0,1-25.73-15.58c31.31-6.9,60.93-21.68,85.83-41.94C500.93,85.81,514.26,72.21,522.74,56c.3-.53,1.68-3.84,2.75-6.41a5.64,5.64,0,0,0-.67-5.56l-3.6-4.89a95,95,0,0,0-23.38-22.37c-47.54-32.31-113.86-14-138.27,38a94.21,94.21,0,0,0-.89,79.09,110,110,0,0,1-13.58.31,1.5,1.5,0,0,0-1.56,1.32l-.59,4.82a1.53,1.53,0,0,0,1.26,1.68,122.8,122.8,0,0,0,19.42,1.51,93.63,93.63,0,0,0,53.8,42.54c53.37,16.55,109.79-17.76,120.46-71.91a4.56,4.56,0,0,0-3.82-5.37ZM383.43,89.23c2.58-28.9,26.73-53.08,55.66-55.57a62.16,62.16,0,0,1,49.93,18c-.8,1.49-7.46,13.74-27.53,34.9-18.57,19.59-43.79,32.47-69.63,40.52A61.17,61.17,0,0,1,383.43,89.23Z"/><path class="cls-2" d="M47.84,299.63q0,10.65-5.6,16.24t-15.12,5.6q-9.51,0-15.12-5.6T6.4,299.63V263.71h7.12v36.08a23.78,23.78,0,0,0,.76,6.16,12.59,12.59,0,0,0,2.36,4.76,10.51,10.51,0,0,0,4.2,3,16.36,16.36,0,0,0,6.28,1.08,16.36,16.36,0,0,0,6.28-1.08,10.38,10.38,0,0,0,4.2-3A12.44,12.44,0,0,0,40,306a23.36,23.36,0,0,0,.76-6.16V263.71h7.12Z"/><path class="cls-2" d="M88.4,320.43V294.75a11.15,11.15,0,0,0-2-7.12c-1.36-1.7-3.64-2.56-6.84-2.56a8.36,8.36,0,0,0-5.2,1.72,12.58,12.58,0,0,0-3.6,4.52,14.7,14.7,0,0,0-1.24,5.12c-.13,1.92-.2,3.65-.2,5.2v18.8h-6.8V280H68.4L69,286A10,10,0,0,1,71.12,283a14,14,0,0,1,3-2.24,14.5,14.5,0,0,1,3.52-1.36,15.34,15.34,0,0,1,3.52-.44q7,0,10.48,3.92t3.52,11v26.64Z"/><path class="cls-2" d="M109.6,270.67v-8h7.92v8Zm.48,49.76V280h7v40.48Z"/><path class="cls-2" d="M148.56,320.43H141.2l-15-40.48h7.12L145,312.43,156.32,280h6.88Z"/><path class="cls-2" d="M205,302.43H176.32a15.72,15.72,0,0,0,1,5.56,12.7,12.7,0,0,0,2.88,4.6,10.07,10.07,0,0,0,7.44,2.88q5,0,7.52-2.64a9,9,0,0,0,1.44-1.84,10.13,10.13,0,0,0,1-2.56h6.64a13.85,13.85,0,0,1-2.08,5.68,14.67,14.67,0,0,1-4.16,4.32,17.91,17.91,0,0,1-4.8,2.24,19,19,0,0,1-5.52.8,17.61,17.61,0,0,1-7.72-1.64,16.72,16.72,0,0,1-5.72-4.44,19.27,19.27,0,0,1-3.8-6.84,26.64,26.64,0,0,1-1.24-8.2,31.87,31.87,0,0,1,.72-6.92,20.19,20.19,0,0,1,2.4-6,17.51,17.51,0,0,1,6.08-6.08,17.26,17.26,0,0,1,9.2-2.4,16.79,16.79,0,0,1,7,1.4,16.53,16.53,0,0,1,5.32,3.8,19.42,19.42,0,0,1,3.84,6.44,21.3,21.3,0,0,1,1.28,7.8Zm-6.88-5.84a15.55,15.55,0,0,0-.64-4.48,11.88,11.88,0,0,0-1.84-3.76,9.29,9.29,0,0,0-3.28-2.68,10.53,10.53,0,0,0-4.72-1,10.66,10.66,0,0,0-4.8,1,10.34,10.34,0,0,0-3.44,2.72,12.21,12.21,0,0,0-2.08,3.8,15.12,15.12,0,0,0-.8,4.36Z"/><path class="cls-2" d="M239.2,286.59c-.59-.1-1.21-.18-1.88-.24s-1.29-.08-1.88-.08a10.19,10.19,0,0,0-4.36.92,11.9,11.9,0,0,0-3.32,2.28,10.24,10.24,0,0,0-2,2.76,13.81,13.81,0,0,0-1.12,3.28,25.48,25.48,0,0,0-.48,3.52c-.08,1.2-.12,2.33-.12,3.4v18h-6.8V280h6.08l.56,7.12a11,11,0,0,1,4.92-5.56,14.78,14.78,0,0,1,7.16-1.8,20.48,20.48,0,0,1,3.2.24Z"/><path class="cls-2" d="M278.8,308.67a11.66,11.66,0,0,1-.88,4.68,12.1,12.1,0,0,1-2.32,3.56,13.5,13.5,0,0,1-5.76,3.48,24.69,24.69,0,0,1-7.44,1.08,25,25,0,0,1-7.2-1,13.78,13.78,0,0,1-5.92-3.56,13.23,13.23,0,0,1-2.88-4.28,12.66,12.66,0,0,1-1-5h6.8a7.83,7.83,0,0,0,1,3.64,9,9,0,0,0,2.32,2.68,8,8,0,0,0,3.36,1.44,19.68,19.68,0,0,0,3.92.4,16.92,16.92,0,0,0,4-.44,8.19,8.19,0,0,0,3.48-1.8,4.6,4.6,0,0,0,1.44-1.84,6,6,0,0,0,.56-2.56,5.06,5.06,0,0,0-1.6-3.84,8.25,8.25,0,0,0-4.72-1.92l-1.76-.24-2.4-.32-2.6-.32c-.88-.1-1.67-.21-2.36-.32a12.47,12.47,0,0,1-7.24-3.48,10.14,10.14,0,0,1-2.68-7.4,10.25,10.25,0,0,1,1-4.44,12.36,12.36,0,0,1,2.36-3.48,14,14,0,0,1,5-3.28,18.63,18.63,0,0,1,6.88-1.2,20.82,20.82,0,0,1,7.44,1.28A12.61,12.61,0,0,1,275,284a12.9,12.9,0,0,1,2.12,3.44,11.23,11.23,0,0,1,.76,4.32H271a7.1,7.1,0,0,0-.76-2.92,7.25,7.25,0,0,0-1.56-2.12,9.56,9.56,0,0,0-6.64-2.16c-.8,0-1.55,0-2.24.08a8.18,8.18,0,0,0-2.48.72,7,7,0,0,0-3,2.28,5.27,5.27,0,0,0-1.08,3.16,4.49,4.49,0,0,0,1.44,3.72,8.29,8.29,0,0,0,4,1.56c1.12.16,2.48.34,4.08.52s3.49.47,5.68.84a13.28,13.28,0,0,1,7.32,3.68A10.11,10.11,0,0,1,278.8,308.67Z"/><path class="cls-2" d="M290.8,270.67v-8h7.92v8Zm.48,49.76V280h7v40.48Z"/><path class="cls-2" d="M334.88,319.88a32.42,32.42,0,0,1-3.32.76,28,28,0,0,1-4.76.35,13.42,13.42,0,0,1-5.44-1,8.89,8.89,0,0,1-3.4-2.48A9,9,0,0,1,316.2,314a15.69,15.69,0,0,1-.52-4V285.79h-7.84V280h7.84V269.63l6.8-1.6V280h12v5.84h-12V309.3c0,2,.44,3.39,1.32,4.25a5.74,5.74,0,0,0,4.12,1.28c.74,0,1.52,0,2.32-.12s1.54-.17,2.24-.28a17.94,17.94,0,0,0,2.4-.32Z"/><path class="cls-2" d="M379.52,320a8.12,8.12,0,0,1-2.16.76,12.69,12.69,0,0,1-2.32.2,5.47,5.47,0,0,1-4.34-1.8,6.34,6.34,0,0,1-1.58-4.36H369a12.45,12.45,0,0,1-5.24,4.84,16.72,16.72,0,0,1-7.8,1.8,16,16,0,0,1-6.08-1.08,12.59,12.59,0,0,1-4.36-2.84,11.75,11.75,0,0,1-2.6-4A12.28,12.28,0,0,1,342,309a13.4,13.4,0,0,1,.68-4.08,10.27,10.27,0,0,1,2.36-4,14.2,14.2,0,0,1,4.44-3.08,19.15,19.15,0,0,1,6.92-1.52l12.32-.72v-3a15.31,15.31,0,0,0-.36-3.2,5.66,5.66,0,0,0-1.72-3A7.54,7.54,0,0,0,364,285a12.27,12.27,0,0,0-4-.56,12.89,12.89,0,0,0-4.56.68,8,8,0,0,0-2.8,1.72,6.61,6.61,0,0,0-2,4.88H344a12.43,12.43,0,0,1,1-4.84,12.13,12.13,0,0,1,2.52-3.64,12.77,12.77,0,0,1,5.4-3.24,22.72,22.72,0,0,1,7.08-1.08c3.94,0,7.07.74,9.38,2.2a12.41,12.41,0,0,1,4.92,5.56,15.2,15.2,0,0,1,1.22,6.24v19.6a2.93,2.93,0,0,0,.6,2.16,2.31,2.31,0,0,0,1.64.56,4.56,4.56,0,0,0,1.12-.16,2.87,2.87,0,0,0,.64-.08Zm-10.8-19.12-10.88.64a15.17,15.17,0,0,0-3.12.52,9.91,9.91,0,0,0-2.88,1.28,6.54,6.54,0,0,0-2.08,2.2,6.3,6.3,0,0,0-.8,3.28,7.14,7.14,0,0,0,1.84,4.84c1.22,1.41,3.28,2.12,6.16,2.12a13,13,0,0,0,4.52-.8,9.84,9.84,0,0,0,3.8-2.48,10.9,10.9,0,0,0,2.64-4.24,15.66,15.66,0,0,0,.8-5Z"/><path class="cls-2" d="M421,308.67a11.84,11.84,0,0,1-.88,4.68,12.1,12.1,0,0,1-2.32,3.56,13.5,13.5,0,0,1-5.76,3.48,26.29,26.29,0,0,1-14.64.08,13.72,13.72,0,0,1-5.92-3.56,13.23,13.23,0,0,1-2.88-4.28,12.49,12.49,0,0,1-1-5h6.8a7.83,7.83,0,0,0,1,3.64,8.87,8.87,0,0,0,2.32,2.68,7.92,7.92,0,0,0,3.36,1.44,19.68,19.68,0,0,0,3.92.4,17,17,0,0,0,4-.44,8.19,8.19,0,0,0,3.48-1.8,4.78,4.78,0,0,0,1.44-1.84,6,6,0,0,0,.56-2.56,5.1,5.1,0,0,0-1.6-3.84,8.25,8.25,0,0,0-4.72-1.92l-1.76-.24-2.4-.32-2.6-.32c-.88-.1-1.67-.21-2.36-.32a12.44,12.44,0,0,1-7.24-3.48,10.14,10.14,0,0,1-2.68-7.4,10.25,10.25,0,0,1,1-4.44,12.15,12.15,0,0,1,2.36-3.48,14,14,0,0,1,5-3.28,18.59,18.59,0,0,1,6.88-1.2,20.82,20.82,0,0,1,7.44,1.28A12.61,12.61,0,0,1,417.2,284a13.16,13.16,0,0,1,2.12,3.44,11.42,11.42,0,0,1,.76,4.32h-6.8a7.25,7.25,0,0,0-.76-2.92,7.62,7.62,0,0,0-1.56-2.12,9.58,9.58,0,0,0-6.64-2.16c-.8,0-1.55,0-2.24.08a8.1,8.1,0,0,0-2.48.72,7,7,0,0,0-3,2.28,5.27,5.27,0,0,0-1.08,3.16,4.49,4.49,0,0,0,1.44,3.72,8.29,8.29,0,0,0,4,1.56c1.12.16,2.48.34,4.08.52s3.49.47,5.68.84a13.28,13.28,0,0,1,7.32,3.68A10.11,10.11,0,0,1,421,308.67Z"/><path class="cls-2" d="M41.68,420.43,37,407H12.4L7.84,420.43H.64l20-56.72H29L49,420.43Zm-17-49.6-10,29.44H34.72Z"/><path class="cls-2" d="M83.84,420.43V394.75a11.15,11.15,0,0,0-2-7.12c-1.36-1.7-3.64-2.56-6.84-2.56a8.34,8.34,0,0,0-5.2,1.72,12.58,12.58,0,0,0-3.6,4.52,14.48,14.48,0,0,0-1.24,5.12c-.13,1.92-.2,3.65-.2,5.2v18.8h-6.8V380h5.92L64.4,386A10,10,0,0,1,66.56,383a14,14,0,0,1,3-2.24,14.5,14.5,0,0,1,3.52-1.36,15.34,15.34,0,0,1,3.52-.44q7,0,10.48,3.92t3.52,11v26.64Z"/><path class="cls-2" d="M132.24,420.43l-.48-5.28a11.53,11.53,0,0,1-5.2,4.68,15.91,15.91,0,0,1-6.88,1.64,17.4,17.4,0,0,1-6.6-1.16,13.83,13.83,0,0,1-4.84-3.24,19.07,19.07,0,0,1-4.36-7.36,29.32,29.32,0,0,1-1.48-9.44,29.88,29.88,0,0,1,1.56-9.8,18.83,18.83,0,0,1,4.6-7.48,15.78,15.78,0,0,1,4.76-3,16.75,16.75,0,0,1,6.36-1.12,14.81,14.81,0,0,1,3.4.4,18.27,18.27,0,0,1,3.32,1.12,13,13,0,0,1,2.92,1.8,9.18,9.18,0,0,1,2.12,2.44v-22h6.8v57.76Zm-.4-20.24a26.55,26.55,0,0,0-1-7.24,12.15,12.15,0,0,0-6.28-7.52,8.72,8.72,0,0,0-3.8-.76,10.58,10.58,0,0,0-5.6,1.36,10,10,0,0,0-3.52,3.6,16.08,16.08,0,0,0-1.8,5,30,30,0,0,0,0,11.12,16.08,16.08,0,0,0,1.8,5,9.87,9.87,0,0,0,3.52,3.6,10.58,10.58,0,0,0,5.6,1.36,8.58,8.58,0,0,0,3.8-.76,10.94,10.94,0,0,0,2.76-1.88,11.4,11.4,0,0,0,3.52-5.64A26.55,26.55,0,0,0,131.84,400.19Z"/><path class="cls-2" d="M187.92,420a8.12,8.12,0,0,1-2.16.76,12.61,12.61,0,0,1-2.32.2,5.48,5.48,0,0,1-4.34-1.8,6.39,6.39,0,0,1-1.58-4.36h-.16a12.45,12.45,0,0,1-5.24,4.84,16.72,16.72,0,0,1-7.8,1.8,16,16,0,0,1-6.08-1.08,12.68,12.68,0,0,1-4.36-2.84,11.9,11.9,0,0,1-2.6-4,12.28,12.28,0,0,1-.88-4.56,13.71,13.71,0,0,1,.68-4.08,10.27,10.27,0,0,1,2.36-4,14.2,14.2,0,0,1,4.44-3.08,19.2,19.2,0,0,1,6.92-1.52l12.32-.72v-3a15.31,15.31,0,0,0-.36-3.2,5.6,5.6,0,0,0-1.72-3,7.44,7.44,0,0,0-2.6-1.52,12.27,12.27,0,0,0-4-.56,12.89,12.89,0,0,0-4.56.68,8.1,8.1,0,0,0-2.8,1.72,6.65,6.65,0,0,0-2,4.88H152.4a12.62,12.62,0,0,1,1-4.84,12.13,12.13,0,0,1,2.52-3.64,12.9,12.9,0,0,1,5.4-3.24,22.72,22.72,0,0,1,7.08-1.08c3.95,0,7.07.74,9.38,2.2a12.49,12.49,0,0,1,4.93,5.56,15.2,15.2,0,0,1,1.21,6.24v19.6a2.93,2.93,0,0,0,.6,2.16,2.33,2.33,0,0,0,1.64.56,4.56,4.56,0,0,0,1.12-.16,2.8,2.8,0,0,0,.64-.08Zm-10.8-19.12-10.88.64a15.4,15.4,0,0,0-3.12.52,9.91,9.91,0,0,0-2.88,1.28,6.64,6.64,0,0,0-2.08,2.2,6.4,6.4,0,0,0-.8,3.28,7.14,7.14,0,0,0,1.84,4.84q1.85,2.11,6.16,2.12a13,13,0,0,0,4.52-.8,9.76,9.76,0,0,0,3.8-2.48,10.68,10.68,0,0,0,2.64-4.24,15.66,15.66,0,0,0,.8-5Z"/><path class="cls-2" d="M212.48,420.43a5.51,5.51,0,0,1-1.2.24c-.43.05-.93.11-1.52.16s-1.28.08-2.08.08q-4.49,0-6.48-2.56c-1.33-1.7-2-4.16-2-7.36V362.67H206v47.92a5.08,5.08,0,0,0,.8,3.12,3.41,3.41,0,0,0,2.88,1h1.4a3.22,3.22,0,0,0,.84-.08h.56Z"/><path class="cls-2" d="M257.52,420a8.12,8.12,0,0,1-2.16.76,12.69,12.69,0,0,1-2.32.2,5.47,5.47,0,0,1-4.34-1.8,6.34,6.34,0,0,1-1.58-4.36H247a12.45,12.45,0,0,1-5.24,4.84,16.72,16.72,0,0,1-7.8,1.8,16,16,0,0,1-6.08-1.08,12.59,12.59,0,0,1-4.36-2.84,11.75,11.75,0,0,1-2.6-4A12.28,12.28,0,0,1,220,409a13.4,13.4,0,0,1,.68-4.08,10.27,10.27,0,0,1,2.36-4,14.2,14.2,0,0,1,4.44-3.08,19.15,19.15,0,0,1,6.92-1.52l12.32-.72v-3a15.31,15.31,0,0,0-.36-3.2,5.66,5.66,0,0,0-1.72-3A7.54,7.54,0,0,0,242,385a12.27,12.27,0,0,0-4-.56,12.89,12.89,0,0,0-4.56.68,8,8,0,0,0-2.8,1.72,6.61,6.61,0,0,0-2,4.88H222a12.43,12.43,0,0,1,1-4.84,12.13,12.13,0,0,1,2.52-3.64,12.77,12.77,0,0,1,5.4-3.24,22.72,22.72,0,0,1,7.08-1.08c3.94,0,7.07.74,9.38,2.2a12.41,12.41,0,0,1,4.92,5.56,15.2,15.2,0,0,1,1.22,6.24v19.6a2.93,2.93,0,0,0,.6,2.16,2.31,2.31,0,0,0,1.64.56,4.56,4.56,0,0,0,1.12-.16,2.87,2.87,0,0,0,.64-.08Zm-10.8-19.12-10.88.64a15.17,15.17,0,0,0-3.12.52,9.91,9.91,0,0,0-2.88,1.28,6.54,6.54,0,0,0-2.08,2.2,6.3,6.3,0,0,0-.8,3.28,7.14,7.14,0,0,0,1.84,4.84c1.22,1.41,3.28,2.12,6.16,2.12a13,13,0,0,0,4.52-.8,9.84,9.84,0,0,0,3.8-2.48,10.9,10.9,0,0,0,2.64-4.24,15.66,15.66,0,0,0,.8-5Z"/><path class="cls-2" d="M299,408.67a11.84,11.84,0,0,1-.88,4.68,12.1,12.1,0,0,1-2.32,3.56,13.5,13.5,0,0,1-5.76,3.48,26.29,26.29,0,0,1-14.64.08,13.72,13.72,0,0,1-5.92-3.56,13.23,13.23,0,0,1-2.88-4.28,12.49,12.49,0,0,1-1-5h6.8a7.83,7.83,0,0,0,1,3.64,8.87,8.87,0,0,0,2.32,2.68,7.92,7.92,0,0,0,3.36,1.44,19.68,19.68,0,0,0,3.92.4,17,17,0,0,0,4-.44,8.19,8.19,0,0,0,3.48-1.8,4.78,4.78,0,0,0,1.44-1.84,6,6,0,0,0,.56-2.56,5.1,5.1,0,0,0-1.6-3.84,8.25,8.25,0,0,0-4.72-1.92l-1.76-.24-2.4-.32-2.6-.32c-.88-.1-1.67-.21-2.36-.32a12.44,12.44,0,0,1-7.24-3.48,10.14,10.14,0,0,1-2.68-7.4,10.25,10.25,0,0,1,1-4.44,12.15,12.15,0,0,1,2.36-3.48,14,14,0,0,1,5-3.28,18.59,18.59,0,0,1,6.88-1.2,20.82,20.82,0,0,1,7.44,1.28A12.61,12.61,0,0,1,295.2,384a13.16,13.16,0,0,1,2.12,3.44,11.42,11.42,0,0,1,.76,4.32h-6.8a7.25,7.25,0,0,0-.76-2.92,7.62,7.62,0,0,0-1.56-2.12,9.58,9.58,0,0,0-6.64-2.16c-.8,0-1.55,0-2.24.08a8.1,8.1,0,0,0-2.48.72,7,7,0,0,0-3,2.28,5.27,5.27,0,0,0-1.08,3.16,4.49,4.49,0,0,0,1.44,3.72,8.29,8.29,0,0,0,4,1.56c1.12.16,2.48.34,4.08.52s3.49.47,5.68.84a13.28,13.28,0,0,1,7.32,3.68A10.11,10.11,0,0,1,299,408.67Z"/></g></g></svg>