<svg xmlns="http://www.w3.org/2000/svg" viewBox="0 0 1086.09 190.25"><defs><style>.cls-1{fill:#fff;}</style></defs><g id="Layer_2" data-name="Layer 2"><g id="Layer_1-2" data-name="Layer 1"><path class="cls-1" d="M154.89,132.14q0,12.93-4.5,22.24a54.62,54.62,0,0,1-11.59,16,64,64,0,0,1-27.14,15.13,124.23,124.23,0,0,1-34,4.52A112.81,112.81,0,0,1,47,185.8a70.48,70.48,0,0,1-27.14-14.61A61.51,61.51,0,0,1,5.42,152.7a50.2,50.2,0,0,1-5.4-18,3.27,3.27,0,0,1,3-3.62l29.37-2.32a3.26,3.26,0,0,1,3.48,2.95,27.53,27.53,0,0,0,2.7,9.33,34.68,34.68,0,0,0,7.23,10,31.3,31.3,0,0,0,15.14,7.89,81.53,81.53,0,0,0,36.41-.26A30.08,30.08,0,0,0,111.79,151a36.45,36.45,0,0,0,5.46-7.11q2.18-3.75,2.18-10.48,0-10.08-7-15.12a37.69,37.69,0,0,0-16-6.6A187.65,187.65,0,0,0,75,109.13q-11.73-.78-21.27-2.33a76.29,76.29,0,0,1-19-5.43A53.66,53.66,0,0,1,19.19,91.15,46.88,46.88,0,0,1,8.55,75.9a49.75,49.75,0,0,1-4-20.3A42.9,42.9,0,0,1,9.24,35.69a60.09,60.09,0,0,1,12.27-16.3q9.54-9,24.55-14.22A98,98,0,0,1,78.24,0a98.7,98.7,0,0,1,29.87,4.52A64.21,64.21,0,0,1,146.3,35.43a45.89,45.89,0,0,1,5,14.75,3.26,3.26,0,0,1-2.93,3.76L119,56.6a3.26,3.26,0,0,1-3.49-2.72,26.48,26.48,0,0,0-2.24-6.69,31.62,31.62,0,0,0-5.86-8.4q-4.64-4.65-13.09-7.24A56.06,56.06,0,0,0,78,29,71.43,71.43,0,0,0,61.2,31a30.39,30.39,0,0,0-14.6,8,26.31,26.31,0,0,0-4.77,6.72,19.88,19.88,0,0,0-1.77,8.79q0,9.06,5.45,13.84T59.7,74.47Q69,75.78,80.56,76.8t21.14,2.33a84.9,84.9,0,0,1,20.6,5.56,57.36,57.36,0,0,1,16.91,10.6,48.48,48.48,0,0,1,11.45,15.9,50.1,50.1,0,0,1,4.23,20.95"/><path class="cls-1" d="M293.18,60.12A25.77,25.77,0,0,0,291,49.7a26.62,26.62,0,0,0-6.27-8.88,28.92,28.92,0,0,0-10.09-6,38.76,38.76,0,0,0-13.36-2.19H214.89V87.15h46.92q15,0,23.18-7t8.19-20.07M294,184.19l-26-56a18.64,18.64,0,0,0-16.9-10.79h-36v65a4.34,4.34,0,0,1-4.35,4.34H184.06a4.34,4.34,0,0,1-4.35-4.34V7.71a4.35,4.35,0,0,1,4.35-4.35h77.21q17.18,0,29.86,4.78a61.89,61.89,0,0,1,21,12.68,49.25,49.25,0,0,1,12.28,18.1,58.7,58.7,0,0,1,3.95,21.33q0,18.61-9.68,32.2a52.28,52.28,0,0,1-25.77,19.26s5.51,1.84,9.39,9.23c.88,1.66,2.16,4.56,3.59,7.59,2.71,5.72,5.68,12,5.68,12l10.48,22.15,9.41,19.91a2.87,2.87,0,0,1-2.6,4.1H298a4.36,4.36,0,0,1-3.95-2.51"/><path class="cls-1" d="M510.76,105.32a4.55,4.55,0,0,0-5.13,3.52c-7.4,34.63-44.34,56.78-78.65,46a60.4,60.4,0,0,1-25.73-15.58c31.31-6.9,60.93-21.68,85.83-41.94C500.93,85.81,514.26,72.21,522.74,56c.3-.53,1.68-3.84,2.75-6.41a5.64,5.64,0,0,0-.67-5.56l-3.6-4.89a95,95,0,0,0-23.38-22.37c-47.54-32.31-113.86-14-138.27,38a94.21,94.21,0,0,0-.89,79.09,110,110,0,0,1-13.58.31,1.5,1.5,0,0,0-1.56,1.32l-.59,4.82a1.53,1.53,0,0,0,1.26,1.68,122.8,122.8,0,0,0,19.42,1.51,93.63,93.63,0,0,0,53.8,42.54c53.37,16.55,109.79-17.76,120.46-71.91a4.56,4.56,0,0,0-3.82-5.37ZM383.43,89.23c2.58-28.9,26.73-53.08,55.66-55.57a62.16,62.16,0,0,1,49.93,18c-.8,1.49-7.46,13.74-27.53,34.9-18.57,19.59-43.79,32.47-69.63,40.52A61.17,61.17,0,0,1,383.43,89.23Z"/><path class="cls-1" d="M647.58,46q0,12.49-6.58,19.08t-17.76,6.58q-11.19,0-17.77-6.58T598.89,46V3.75h8.37V46.14a27.35,27.35,0,0,0,.89,7.24,14.86,14.86,0,0,0,2.77,5.6,12.39,12.39,0,0,0,4.94,3.57,22,22,0,0,0,14.75,0A12.39,12.39,0,0,0,635.55,59a14.86,14.86,0,0,0,2.77-5.6,27.34,27.34,0,0,0,.9-7.24V3.75h8.36Z"/><path class="cls-1" d="M695.24,70.4V40.22q0-5.36-2.4-8.36t-8-3a9.71,9.71,0,0,0-6.1,2,14.54,14.54,0,0,0-4.23,5.31,16.75,16.75,0,0,0-1.46,6q-.24,3.38-.24,6.11V70.4h-8V22.83h7L672.4,30a11.55,11.55,0,0,1,2.54-3.62,16,16,0,0,1,3.57-2.63,16.37,16.37,0,0,1,4.13-1.6,17.51,17.51,0,0,1,4.14-.52q8.18,0,12.31,4.61t4.14,12.87V70.4Z"/><path class="cls-1" d="M720.15,11.93V2.53h9.3v9.4Zm.56,58.47V22.83h8.18V70.4Z"/><path class="cls-1" d="M765.93,70.4h-8.65L739.7,22.83h8.37L761.79,61,775,22.83h8.09Z"/><path class="cls-1" d="M832.2,49.25H798.54a18.29,18.29,0,0,0,1.23,6.53,14.92,14.92,0,0,0,3.38,5.4,11.82,11.82,0,0,0,8.74,3.39c4,0,6.89-1,8.84-3.1a10.53,10.53,0,0,0,1.69-2.17,11.81,11.81,0,0,0,1.13-3h7.8A16.42,16.42,0,0,1,828.91,63,17.32,17.32,0,0,1,824,68.05a21.46,21.46,0,0,1-5.64,2.63,22.49,22.49,0,0,1-6.49.94,20.55,20.55,0,0,1-9.07-1.93,19.67,19.67,0,0,1-6.72-5.22,22.67,22.67,0,0,1-4.47-8,31.51,31.51,0,0,1-1.45-9.64,37.7,37.7,0,0,1,.84-8.13,24.07,24.07,0,0,1,2.82-7.1A20.62,20.62,0,0,1,801,24.43a20.28,20.28,0,0,1,10.81-2.82A19.59,19.59,0,0,1,820,23.26a19.34,19.34,0,0,1,6.25,4.46,22.7,22.7,0,0,1,4.52,7.57,25.18,25.18,0,0,1,1.5,9.16Zm-8.09-6.87a18.48,18.48,0,0,0-.75-5.26,13.91,13.91,0,0,0-2.16-4.42,11.07,11.07,0,0,0-3.86-3.15,12.26,12.26,0,0,0-5.54-1.17,12.52,12.52,0,0,0-5.64,1.22,12,12,0,0,0-4,3.2,14.34,14.34,0,0,0-2.45,4.46,17.87,17.87,0,0,0-.94,5.12Z"/><path class="cls-1" d="M872.43,30.63c-.69-.12-1.43-.21-2.21-.28s-1.52-.09-2.21-.09a11.89,11.89,0,0,0-5.12,1.08A13.6,13.6,0,0,0,859,34a12.06,12.06,0,0,0-2.3,3.24,16.58,16.58,0,0,0-1.31,3.86,29.33,29.33,0,0,0-.57,4.13c-.09,1.41-.14,2.74-.14,4V70.4h-8V22.83h7.14l.66,8.37a12.85,12.85,0,0,1,5.78-6.53,17.4,17.4,0,0,1,8.42-2.12,23.91,23.91,0,0,1,3.76.28Z"/><path class="cls-1" d="M919,56.58a13.76,13.76,0,0,1-1,5.5,14.3,14.3,0,0,1-2.72,4.18,15.91,15.91,0,0,1-6.77,4.09,28.94,28.94,0,0,1-8.74,1.27,29.27,29.27,0,0,1-8.46-1.18,16.13,16.13,0,0,1-7-4.18,15.74,15.74,0,0,1-3.38-5,14.76,14.76,0,0,1-1.23-5.87h8a9.35,9.35,0,0,0,1.13,4.27,10.3,10.3,0,0,0,2.73,3.15,9.3,9.3,0,0,0,4,1.69,22.88,22.88,0,0,0,4.6.47,20.58,20.58,0,0,0,4.65-.51,9.63,9.63,0,0,0,4.09-2.12,5.45,5.45,0,0,0,1.7-2.16,7.14,7.14,0,0,0,.65-3,5.94,5.94,0,0,0-1.88-4.51,9.66,9.66,0,0,0-5.54-2.26c-.5-.06-1.19-.15-2.07-.28s-1.82-.25-2.82-.37l-3.06-.38c-1-.12-1.95-.25-2.77-.38a14.64,14.64,0,0,1-8.51-4.08,12,12,0,0,1-3.14-8.7A12.13,12.13,0,0,1,882.53,31a14.52,14.52,0,0,1,2.77-4.09A16.56,16.56,0,0,1,891.23,23a21.84,21.84,0,0,1,8.08-1.41,24.4,24.4,0,0,1,8.74,1.5,15.73,15.73,0,0,1,8.88,8.56,13.12,13.12,0,0,1,.9,5.07h-8a8.35,8.35,0,0,0-.9-3.43,8.74,8.74,0,0,0-1.83-2.49q-2.82-2.54-7.8-2.54c-.94,0-1.82,0-2.63.1a9.09,9.09,0,0,0-2.92.84,8.09,8.09,0,0,0-3.52,2.68A6.17,6.17,0,0,0,889,35.62,5.29,5.29,0,0,0,890.66,40a9.78,9.78,0,0,0,4.7,1.83c1.32.19,2.92.39,4.8.61s4.1.55,6.67,1a15.55,15.55,0,0,1,8.6,4.32A11.91,11.91,0,0,1,919,56.58Z"/><path class="cls-1" d="M933.05,11.93V2.53h9.31v9.4Zm.57,58.47V22.83h8.18V70.4Z"/><path class="cls-1" d="M984.85,69.75c-1.07.31-2.37.61-3.9.89a31.92,31.92,0,0,1-5.6.41A15.81,15.81,0,0,1,969,69.93,10.67,10.67,0,0,1,965,67a10.8,10.8,0,0,1-2.07-4.13,18.55,18.55,0,0,1-.61-4.7V29.69h-9.21V22.83h9.21V10.71l8-1.88v14h14.1v6.86h-14.1V57.31c0,2.33.52,4,1.55,5a6.75,6.75,0,0,0,4.84,1.51c.88,0,1.79,0,2.73-.14s1.81-.21,2.63-.33a22.72,22.72,0,0,0,2.82-.38Z"/><path class="cls-1" d="M1037.3,69.93a9.91,9.91,0,0,1-2.54.89,14.16,14.16,0,0,1-2.72.23,6.44,6.44,0,0,1-5.1-2.11,7.49,7.49,0,0,1-1.86-5.12h-.19a14.64,14.64,0,0,1-6.15,5.68,19.67,19.67,0,0,1-9.17,2.12,18.64,18.64,0,0,1-7.14-1.27A15.06,15.06,0,0,1,997.3,67a13.9,13.9,0,0,1-3-4.7,14.52,14.52,0,0,1-1-5.36,16.06,16.06,0,0,1,.8-4.79,12.05,12.05,0,0,1,2.78-4.65,16.43,16.43,0,0,1,5.21-3.62,22.53,22.53,0,0,1,8.13-1.79l14.48-.84V37.78a18,18,0,0,0-.42-3.76,6.68,6.68,0,0,0-2-3.48,9,9,0,0,0-3.06-1.79,14.54,14.54,0,0,0-4.75-.65,14.86,14.86,0,0,0-5.35.8,9.17,9.17,0,0,0-3.29,2,7.76,7.76,0,0,0-2.35,5.73h-7.81A15,15,0,0,1,996.74,31a14.42,14.42,0,0,1,3-4.27,15.06,15.06,0,0,1,6.34-3.81,26.64,26.64,0,0,1,8.32-1.27q7,0,11,2.59a14.57,14.57,0,0,1,5.78,6.53,17.82,17.82,0,0,1,1.43,7.33v23a3.52,3.52,0,0,0,.7,2.54,2.72,2.72,0,0,0,1.93.66,5.82,5.82,0,0,0,1.32-.19,2.76,2.76,0,0,0,.75-.1Zm-12.69-22.47-12.78.75a17.91,17.91,0,0,0-3.67.61,11.93,11.93,0,0,0-3.38,1.51,7.76,7.76,0,0,0-2.45,2.58,7.46,7.46,0,0,0-.94,3.86,8.42,8.42,0,0,0,2.16,5.68c1.44,1.66,3.86,2.49,7.24,2.49a15.32,15.32,0,0,0,5.31-.94,11.41,11.41,0,0,0,4.47-2.91,12.64,12.64,0,0,0,3.1-5,18.21,18.21,0,0,0,.94-5.83Z"/><path class="cls-1" d="M1086.09,56.58a13.76,13.76,0,0,1-1,5.5,14.3,14.3,0,0,1-2.72,4.18,15.91,15.91,0,0,1-6.77,4.09,28.94,28.94,0,0,1-8.74,1.27,29.27,29.27,0,0,1-8.46-1.18,16.13,16.13,0,0,1-7-4.18,15.74,15.74,0,0,1-3.38-5,14.76,14.76,0,0,1-1.23-5.87h8a9.35,9.35,0,0,0,1.13,4.27,10.3,10.3,0,0,0,2.73,3.15,9.3,9.3,0,0,0,3.95,1.69,22.88,22.88,0,0,0,4.6.47,20.58,20.58,0,0,0,4.65-.51,9.63,9.63,0,0,0,4.09-2.12,5.45,5.45,0,0,0,1.7-2.16,7.14,7.14,0,0,0,.65-3,5.94,5.94,0,0,0-1.88-4.51,9.66,9.66,0,0,0-5.54-2.26c-.5-.06-1.19-.15-2.07-.28s-1.82-.25-2.82-.37l-3.06-.38c-1-.12-2-.25-2.77-.38a14.64,14.64,0,0,1-8.51-4.08,12,12,0,0,1-3.14-8.7,12.13,12.13,0,0,1,1.17-5.22,14.52,14.52,0,0,1,2.77-4.09,16.56,16.56,0,0,1,5.93-3.85,21.84,21.84,0,0,1,8.08-1.41,24.4,24.4,0,0,1,8.74,1.5,15.73,15.73,0,0,1,8.88,8.56,13.12,13.12,0,0,1,.9,5.07h-8a8.35,8.35,0,0,0-.9-3.43,8.74,8.74,0,0,0-1.83-2.49q-2.82-2.54-7.8-2.54c-.94,0-1.82,0-2.63.1a9.09,9.09,0,0,0-2.92.84,8.09,8.09,0,0,0-3.52,2.68,6.17,6.17,0,0,0-1.27,3.72,5.29,5.29,0,0,0,1.69,4.37,9.74,9.74,0,0,0,4.7,1.83c1.32.19,2.92.39,4.8.61s4.1.55,6.67,1a15.55,15.55,0,0,1,8.6,4.32A11.91,11.91,0,0,1,1086.09,56.58Z"/><path class="cls-1" d="M640.34,187.4l-5.45-15.8H605.94l-5.36,15.8h-8.46l23.5-66.65h9.78L649,187.4Zm-20-58.28-11.75,34.59h23.6Z"/><path class="cls-1" d="M689.88,187.4V157.22q0-5.35-2.4-8.36t-8-3a9.72,9.72,0,0,0-6.11,2,14.54,14.54,0,0,0-4.23,5.31,17,17,0,0,0-1.46,6q-.24,3.38-.24,6.11V187.4h-8V139.83h7L667,147a11.55,11.55,0,0,1,2.54-3.62,16,16,0,0,1,3.57-2.63,16.37,16.37,0,0,1,4.13-1.6,17.57,17.57,0,0,1,4.14-.52q8.18,0,12.31,4.61t4.14,12.87V187.4Z"/><path class="cls-1" d="M746.75,187.4l-.56-6.21a13.61,13.61,0,0,1-6.11,5.5,18.6,18.6,0,0,1-8.09,1.93,20.55,20.55,0,0,1-7.75-1.36,16.37,16.37,0,0,1-5.69-3.81,22.39,22.39,0,0,1-5.12-8.65,34.55,34.55,0,0,1-1.74-11.09,35.13,35.13,0,0,1,1.83-11.52,22,22,0,0,1,5.41-8.79,18.16,18.16,0,0,1,5.59-3.47,19.68,19.68,0,0,1,7.47-1.32,17.82,17.82,0,0,1,4,.47,20.83,20.83,0,0,1,3.9,1.32,15.58,15.58,0,0,1,3.43,2.11,10.86,10.86,0,0,1,2.49,2.87V119.53h8V187.4Zm-.47-23.79a31.23,31.23,0,0,0-1.13-8.5,13.48,13.48,0,0,0-4.13-6.63,13.31,13.31,0,0,0-3.25-2.21,10.19,10.19,0,0,0-4.46-.89,12.43,12.43,0,0,0-6.58,1.6,11.5,11.5,0,0,0-4.14,4.23,18.56,18.56,0,0,0-2.11,5.87,35.31,35.31,0,0,0,0,13.07,18.56,18.56,0,0,0,2.11,5.87,11.5,11.5,0,0,0,4.14,4.23,12.43,12.43,0,0,0,6.58,1.6,10.19,10.19,0,0,0,4.46-.89,13.31,13.31,0,0,0,3.25-2.21,13.48,13.48,0,0,0,4.13-6.63A31.25,31.25,0,0,0,746.28,163.61Z"/><path class="cls-1" d="M812.17,186.93a9.91,9.91,0,0,1-2.54.89,14.16,14.16,0,0,1-2.72.23,6.44,6.44,0,0,1-5.1-2.11,7.49,7.49,0,0,1-1.86-5.12h-.18a14.73,14.73,0,0,1-6.16,5.68,19.67,19.67,0,0,1-9.17,2.12,18.68,18.68,0,0,1-7.14-1.27,14.92,14.92,0,0,1-5.12-3.34,13.93,13.93,0,0,1-3.06-4.7,14.5,14.5,0,0,1-1-5.36,15.75,15.75,0,0,1,.8-4.79,12,12,0,0,1,2.77-4.65,16.37,16.37,0,0,1,5.22-3.62A22.53,22.53,0,0,1,785,159.1l14.47-.84v-3.48a18,18,0,0,0-.42-3.76,6.62,6.62,0,0,0-2-3.48,8.9,8.9,0,0,0-3.06-1.79,14.51,14.51,0,0,0-4.74-.65,14.92,14.92,0,0,0-5.36.8,9.17,9.17,0,0,0-3.29,2,7.76,7.76,0,0,0-2.35,5.73h-7.8a14.79,14.79,0,0,1,1.17-5.69,14.42,14.42,0,0,1,3-4.27,15.09,15.09,0,0,1,6.35-3.81,26.6,26.6,0,0,1,8.32-1.27q6.94,0,11,2.59a14.6,14.6,0,0,1,5.79,6.53,17.82,17.82,0,0,1,1.42,7.33v23a3.47,3.47,0,0,0,.71,2.54,2.7,2.7,0,0,0,1.92.66,5.82,5.82,0,0,0,1.32-.19,2.76,2.76,0,0,0,.75-.1Zm-12.69-22.47-12.78.75a18.14,18.14,0,0,0-3.67.61,11.93,11.93,0,0,0-3.38,1.51,7.86,7.86,0,0,0-2.45,2.58,7.56,7.56,0,0,0-.94,3.86,8.38,8.38,0,0,0,2.17,5.68q2.16,2.49,7.23,2.49A15.41,15.41,0,0,0,791,181a11.37,11.37,0,0,0,4.46-2.91,12.52,12.52,0,0,0,3.1-5,18.21,18.21,0,0,0,.94-5.83Z"/><path class="cls-1" d="M841,187.4a7.3,7.3,0,0,1-1.41.28l-1.79.19c-.69.06-1.5.09-2.44.09q-5.26,0-7.61-3c-1.57-2-2.35-4.89-2.35-8.65V119.53h8v56.3a5.94,5.94,0,0,0,.94,3.67c.62.82,1.75,1.22,3.38,1.22h1.64a4.39,4.39,0,0,0,1-.09H841Z"/><path class="cls-1" d="M894,186.93a9.91,9.91,0,0,1-2.54.89,14.16,14.16,0,0,1-2.72.23,6.44,6.44,0,0,1-5.1-2.11,7.49,7.49,0,0,1-1.86-5.12h-.19a14.64,14.64,0,0,1-6.15,5.68,19.67,19.67,0,0,1-9.17,2.12,18.64,18.64,0,0,1-7.14-1.27A15.06,15.06,0,0,1,854,184a13.9,13.9,0,0,1-3.05-4.7,14.52,14.52,0,0,1-1-5.36,16.06,16.06,0,0,1,.8-4.79,12.05,12.05,0,0,1,2.78-4.65,16.43,16.43,0,0,1,5.21-3.62,22.53,22.53,0,0,1,8.13-1.79l14.48-.84v-3.48a18,18,0,0,0-.42-3.76,6.68,6.68,0,0,0-2-3.48,9,9,0,0,0-3.06-1.79,14.54,14.54,0,0,0-4.75-.65,14.86,14.86,0,0,0-5.35.8,9.17,9.17,0,0,0-3.29,2,7.76,7.76,0,0,0-2.35,5.73h-7.81a15,15,0,0,1,1.18-5.69,14.42,14.42,0,0,1,3-4.27,15,15,0,0,1,6.35-3.81,26.53,26.53,0,0,1,8.31-1.27q7,0,11,2.59a14.57,14.57,0,0,1,5.78,6.53,17.82,17.82,0,0,1,1.43,7.33v23a3.47,3.47,0,0,0,.71,2.54,2.7,2.7,0,0,0,1.92.66,5.82,5.82,0,0,0,1.32-.19,2.76,2.76,0,0,0,.75-.1Zm-12.69-22.47-12.78.75a17.91,17.91,0,0,0-3.67.61,11.93,11.93,0,0,0-3.38,1.51,7.76,7.76,0,0,0-2.45,2.58,7.56,7.56,0,0,0-.94,3.86,8.42,8.42,0,0,0,2.16,5.68q2.17,2.49,7.24,2.49a15.32,15.32,0,0,0,5.31-.94,11.41,11.41,0,0,0,4.47-2.91,12.64,12.64,0,0,0,3.1-5,18.21,18.21,0,0,0,.94-5.83Z"/><path class="cls-1" d="M942.74,173.58a13.76,13.76,0,0,1-1,5.5,14.3,14.3,0,0,1-2.72,4.18,15.91,15.91,0,0,1-6.77,4.09,28.94,28.94,0,0,1-8.74,1.27,29.27,29.27,0,0,1-8.46-1.18,16.13,16.13,0,0,1-7-4.18,15.74,15.74,0,0,1-3.38-5,14.76,14.76,0,0,1-1.23-5.87h8a9.23,9.23,0,0,0,1.13,4.27,10.3,10.3,0,0,0,2.73,3.15,9.3,9.3,0,0,0,4,1.69,22.88,22.88,0,0,0,4.6.47,20.58,20.58,0,0,0,4.65-.51,9.63,9.63,0,0,0,4.09-2.12,5.45,5.45,0,0,0,1.7-2.16,7.14,7.14,0,0,0,.65-3,5.94,5.94,0,0,0-1.88-4.51,9.66,9.66,0,0,0-5.54-2.26c-.51-.06-1.19-.15-2.07-.28s-1.82-.25-2.82-.37l-3.06-.38c-1-.12-2-.25-2.77-.38a14.64,14.64,0,0,1-8.51-4.08,12,12,0,0,1-3.14-8.7,12.13,12.13,0,0,1,1.17-5.22,14.52,14.52,0,0,1,2.77-4.09A16.56,16.56,0,0,1,915,140a21.84,21.84,0,0,1,8.08-1.41,24.4,24.4,0,0,1,8.74,1.5,15.73,15.73,0,0,1,8.88,8.56,13.12,13.12,0,0,1,.9,5.07h-8a8.35,8.35,0,0,0-.9-3.43,8.74,8.74,0,0,0-1.83-2.49q-2.82-2.53-7.8-2.54c-.94,0-1.82,0-2.63.1a9.09,9.09,0,0,0-2.92.84A8.09,8.09,0,0,0,914,148.9a6.17,6.17,0,0,0-1.27,3.72,5.29,5.29,0,0,0,1.69,4.37,9.74,9.74,0,0,0,4.7,1.83c1.32.19,2.92.39,4.8.61s4.1.55,6.67,1a15.55,15.55,0,0,1,8.6,4.32A11.91,11.91,0,0,1,942.74,173.58Z"/></g></g></svg>